<svg xmlns="http://www.w3.org/2000/svg" viewBox="0 0 576 512"><!--!Font Awesome Pro 6.5.1 by @fontawesome - https://fontawesome.com License - https://fontawesome.com/license (Commercial License) Copyright 2024 Fonticons, Inc.--><path d="M0 64C0 28.7 28.7 0 64 0L220.2 0c12.7 0 24.9 5.1 33.9 14.1L369.9 130c9 9 14.1 21.2 14.1 33.9l0 34.7c-11.2 3.2-21.9 7.4-32 12.6l0-19.2-112 0c-26.5 0-48-21.5-48-48l0-112L64 32C46.3 32 32 46.3 32 64l0 384c0 17.7 14.3 32 32 32l232.3 0c9.8 11.8 21 22.3 33.5 31.3c-3.2 .5-6.4 .7-9.8 .7L64 512c-35.3 0-64-28.7-64-64L0 64zM96 336c0-8.8 7.2-16 16-16l64 0 0-64c0-8.8 7.2-16 16-16s16 7.2 16 16l0 64 54.6 0c-2.9 10.3-4.9 21-5.9 32L208 352l0 64c0 8.8-7.2 16-16 16s-16-7.2-16-16l0-64-64 0c-8.8 0-16-7.2-16-16zM224 32.5L224 144c0 8.8 7.2 16 16 16l111.5 0c-.7-2.8-2.1-5.3-4.2-7.4L231.4 36.7c-2-2.1-4.6-3.5-7.4-4.2zM288 368c0-51.4 27.4-99 72-124.7s99.4-25.7 144 0s72 73.3 72 124.7s-27.4 99-72 124.7s-99.4 25.7-144 0S288 419.4 288 368zm32 0c0 40 21.3 77 56 97s77.3 20 112 0s56-57 56-97s-21.3-77-56-97s-77.3-20-112 0s-56 57-56 97zm64-56c0-5.8 3.1-11.1 8.1-13.9s11.2-2.8 16.1 .2c31.1 18.7 62.2 37.3 93.3 56c4.8 2.9 7.8 8.1 7.8 13.7s-2.9 10.8-7.8 13.7l-93.3 56c-4.9 3-11.1 3-16.1 .2s-8.1-8.2-8.1-13.9l0-112zm32 28.3l0 55.5L462.2 368 416 340.3z"/></svg>