<svg xmlns="http://www.w3.org/2000/svg" height="1em" viewBox="0 0 640 512"><!--! Font Awesome Pro 6.4.2 by @fontawesome - https://fontawesome.com License - https://fontawesome.com/license (Commercial License) Copyright 2023 Fonticons, Inc. --><path d="M1.7 3C4.5-.4 9.5-1 13 1.7c207.7 165.4 415.4 330.7 623.1 496c4.3 2.8 4.9 7.8 2.2 10.4c-2.8 4.3-7.8 4.9-11.3 2.2C419 344.9 211 179.6 3 14.3C-.4 11.5-1 6.5 1.7 3zM64 224c0-17.7 14.3-32 32-32c8.9 0 17.8 0 26.7 0c6 4.8 12.1 9.6 18.1 14.3c-1.4 1-3 1.7-4.9 1.7c-13.3 0-26.7 0-40 0c-8.8 0-16 7.2-16 16c0 64 0 128 0 192c0 8.8 7.2 16 16 16c24 0 48 0 72 0c0-34.7 0-69.3 0-104c0-4.4 3.6-8 8-8s8 3.6 8 8c0 34.7 0 69.3 0 104c26.7 0 53.3 0 80 0c0-34.7 0-69.3 0-104c0-4.4 3.6-8 8-8s8 3.6 8 8c0 34.7 0 69.3 0 104c26.7 0 53.3 0 80 0c0-17.6 0-35.1 0-52.7c5.3 4.2 10.7 8.4 16 12.6c0 13.4 0 26.7 0 40.1c16.9 0 33.8 0 50.7 0c6.8 5.3 13.5 10.7 20.3 16c-26.3 0-52.7 0-79 0c-32 0-64 0-96 0s-64 0-96 0c-26.7 0-53.3 0-80 0c-17.7 0-32-14.3-32-32c0-64 0-128 0-192zM203 71.9c5.6-4.9 13-7.9 21-7.9c64 0 128 0 192 0c17.7 0 32 14.3 32 32c0 10.7 0 21.3 0 32c10.7 0 21.3 0 32 0c17.7 0 32 14.3 32 32c0 10.7 0 21.3 0 32c10.7 0 21.3 0 32 0c17.7 0 32 14.3 32 32c0 47.5 0 94.9 0 142.4l-16-12.6c0-43.3 0-86.5 0-129.7c0-8.8-7.2-16-16-16c-13.3 0-26.7 0-40 0c-4.4 0-8-3.6-8-8c0-13.3 0-26.7 0-40c0-8.8-7.2-16-16-16c-13.3 0-26.7 0-40 0c-4.4 0-8-3.6-8-8c0-13.3 0-26.7 0-40c0-8.8-7.2-16-16-16c-64 0-128 0-192 0c-2.9 0-5.6 .8-8 2.2c-4.3-3.4-8.7-6.9-13-10.3z"/></svg>